# xmcd
#
# Track frame offsets:
#	150
#	16769
#	31053
#	47808
#	64252
#	81080
#	93908
#	110206
#	126025
#	142917
#	161055
#	174497
#	190644
#	205611
#	221615
#	235109
#	249001
#	265438
#	283215
#
# Disc length: 3966 seconds
#
# Revision: 1
# Processed by: cddbd v1.5.1PL0 Copyright (c) Steve Scherf et al.
# Submitted via: audiograbber 1.83.01
#
DISCID=030f7c13
DTITLE=Various Artist - RC52
DYEAR=1999
DGENRE=Country
TTITLE0=Shania Twain - That Don't Impress Me Much
TTITLE1=Kenny Chesney - How Forever Feels
TTITLE2=Brooks And Dunn - I Can't Get Over You
TTITLE3=Dixie Chicks - You Were Mine
TTITLE4=Mark Chesnutt - I Don't Want To Miss A Thing
TTITLE5=Alabama - Keepin' Up
TTITLE6=Kinleys - Somebody's Out There Watching
TTITLE7=George Strait - Meanwhile
TTITLE8=Faith Hill - Love Ain't Like That
TTITLE9=Mark Wills - Wish You Were Here
TTITLE10=Trisha Yearwood - Powerful Thing
TTITLE11=Sawyer Brown - Drive Me Wild
TTITLE12=Billy Ray Cyrus - Busy Man
TTITLE13=Lari White - Take Me
TTITLE14=Michael Peterson - By The Book
TTITLE15=Lee Ann Womack - I'll Think Of A Reason Later
TTITLE16=Deryl Dodd - A Bitter End
TTITLE17=Chad Brock - Ordinary Life
TTITLE18=Vince Gill - Kindly Keep It Country
EXTD=
EXTT0=
EXTT1=
EXTT2=
EXTT3=
EXTT4=
EXTT5=
EXTT6=
EXTT7=
EXTT8=
EXTT9=
EXTT10=
EXTT11=
EXTT12=
EXTT13=
EXTT14=
EXTT15=
EXTT16=
EXTT17=
EXTT18=
PLAYORDER=
